<?xml version="1.0" standalone="no"?>
<!DOCTYPE svg PUBLIC "-//W3C//DTD SVG 20010904//EN"
 "http://www.w3.org/TR/2001/REC-SVG-20010904/DTD/svg10.dtd">
<svg version="1.0" xmlns="http://www.w3.org/2000/svg"
 width="318.000000pt" height="159.000000pt" viewBox="0 0 318.000000 159.000000"
 preserveAspectRatio="xMidYMid meet">
<metadata>
Created by potrace 1.16, written by Peter Selinger 2001-2019
</metadata>
<g transform="translate(0.000000,159.000000) scale(0.100000,-0.100000)"
fill="#FFA500" stroke="none">
<path d="M0 796 l0 -795 433 1 c237 1 420 3 405 6 -28 3 -36 16 -18 27 5 3 10
1 10 -5 0 -7 7 -10 15 -6 8 3 21 -2 29 -10 10 -10 32 -14 63 -13 55 2 75 13
66 36 -5 13 -2 15 11 10 10 -4 20 -7 22 -7 2 0 4 -9 4 -20 0 -23 15 -27 23 -6
5 14 -50 56 -73 56 -13 0 -20 29 -8 36 7 4 8 3 4 -4 -8 -13 7 -14 44 -2 22 7
22 8 5 10 -11 1 -23 2 -26 2 -11 -1 -6 33 7 45 17 17 25 16 18 -2 -4 -8 -2
-15 4 -15 6 0 13 6 15 13 3 7 6 6 6 -5 1 -26 16 -29 16 -3 0 13 -4 23 -10 22
-5 -1 -10 4 -11 11 -1 6 -2 15 -3 18 0 4 -12 -1 -26 -10 -33 -22 -37 -20 -23
9 7 15 20 25 32 25 24 0 56 -32 56 -55 0 -13 3 -13 20 -3 22 14 27 30 7 22 -8
-3 -19 1 -26 9 -9 11 -8 17 4 27 8 7 15 8 15 2 0 -5 12 -12 27 -15 l28 -5 -23
19 c-22 17 -22 20 -8 34 9 9 21 13 28 9 15 -10 69 -11 74 -2 3 4 0 16 -6 27
-8 16 -6 22 10 31 11 6 17 16 14 22 -4 7 -3 8 5 4 6 -4 9 -10 7 -14 -2 -4 2
-16 10 -27 8 -10 14 -14 14 -8 0 7 -5 15 -10 18 -6 4 -7 11 -4 17 12 19 -20
28 -38 11 -10 -9 -18 -11 -18 -5 0 6 5 14 11 17 7 5 5 13 -5 24 -8 9 -12 22
-7 29 6 9 12 7 26 -8 10 -11 23 -20 29 -20 6 0 2 7 -9 16 -19 14 -17 15 21 8
26 -4 44 -2 48 5 5 7 1 8 -10 4 -11 -4 -15 -3 -10 5 3 6 2 13 -4 17 -5 3 -10
-1 -10 -10 0 -15 -1 -15 -16 0 -13 13 -19 14 -25 4 -4 -8 -11 -10 -15 -6 -12
12 1 18 47 22 23 3 48 0 56 -6 22 -19 15 -1 -9 21 -15 14 -24 16 -29 9 -4 -7
-12 -8 -20 -4 -9 6 -6 11 11 17 13 5 27 4 35 -2 6 -5 15 -7 19 -3 4 4 21 8 39
8 21 0 32 6 33 15 3 46 5 53 11 47 3 -4 12 1 19 11 12 16 13 16 14 0 0 -9 -8
-22 -17 -27 -16 -9 -16 -10 -1 -11 9 0 19 -6 22 -12 3 -7 3 -3 1 8 -4 14 0 24
11 28 15 6 15 8 -1 26 -10 11 -15 23 -11 27 4 4 11 1 16 -7 6 -8 10 -11 10 -7
0 5 -10 22 -21 39 l-22 30 22 -13 c11 -8 21 -17 21 -22 0 -4 5 -5 10 -2 6 3
13 -1 16 -9 7 -19 25 -22 22 -4 -2 7 7 14 20 16 18 3 22 -1 22 -22 0 -40 0
-41 -16 -38 -8 2 -14 -2 -14 -7 0 -5 10 -7 23 -4 12 2 30 5 39 5 10 -1 17 5
15 11 -1 7 4 11 11 9 6 -1 12 2 12 8 0 5 5 10 11 10 5 0 7 -6 3 -12 -4 -7 -4
-10 1 -6 4 4 15 2 23 -5 13 -9 14 -9 8 1 -4 7 -2 12 4 12 6 0 8 5 5 10 -9 14
2 12 30 -6 13 -9 29 -13 35 -9 5 3 10 -1 10 -10 0 -8 7 -18 15 -21 8 -4 13
-10 10 -14 -3 -5 2 -15 10 -23 22 -22 19 -28 -10 -21 -15 4 -25 2 -25 -5 0 -6
5 -11 11 -11 7 0 18 -8 26 -17 14 -17 14 -17 9 2 l-6 20 15 -20 c9 -11 21 -20
28 -20 7 0 11 -8 11 -17 -1 -10 8 -19 22 -22 20 -5 23 -10 14 -26 -5 -10 -10
-28 -10 -40 0 -12 -4 -18 -10 -15 -5 3 -10 1 -10 -4 0 -24 21 -8 46 34 14 25
27 45 28 45 2 0 3 -18 2 -40 -1 -22 -4 -40 -8 -40 -13 0 4 -41 89 -213 l48
-97 213 0 c123 0 211 4 208 9 -3 5 1 11 9 15 9 3 15 0 15 -9 0 -12 19 -15 100
-15 77 0 100 3 100 13 0 8 -25 41 -56 75 -66 73 -93 80 -124 30 -11 -18 -20
-28 -20 -23 0 18 40 75 52 75 14 0 15 7 20 201 2 71 8 132 14 140 16 20 34 76
44 137 7 40 17 61 43 87 30 30 34 32 45 17 7 -10 10 -11 7 -5 -4 8 -1 11 9 7
21 -8 7 -37 -15 -31 -19 5 -57 -28 -46 -39 4 -4 9 1 13 10 4 10 18 16 41 16
20 0 32 -4 28 -10 -3 -5 -1 -10 5 -10 6 0 8 -5 4 -12 -4 -7 -3 -8 4 -4 13 8
35 -27 24 -40 -4 -5 1 -3 10 5 9 7 14 19 11 27 -4 10 1 13 18 11 25 -4 25 -6
30 -109 1 -25 26 -41 54 -34 14 4 25 3 25 -2 0 -4 15 -16 34 -26 33 -18 34
-18 15 -37 -10 -10 -23 -19 -29 -19 -15 0 -12 -16 5 -34 8 -8 15 -19 15 -25 0
-6 5 -11 11 -11 5 0 7 -5 4 -10 -3 -6 3 -10 14 -10 21 0 27 -11 14 -24 -11
-10 -11 -45 0 -43 5 1 12 -4 15 -12 3 -9 0 -11 -8 -6 -7 4 -5 -4 5 -18 10 -17
13 -27 6 -32 -6 -3 -11 -11 -11 -18 0 -6 6 -2 14 9 8 10 18 16 22 12 4 -4 1
-15 -7 -24 -11 -13 -11 -15 3 -12 9 1 17 0 17 -4 3 -25 -1 -29 -21 -23 -18 4
-17 2 5 -10 23 -13 31 -14 43 -4 13 10 17 10 25 -2 5 -9 9 66 9 195 l0 209
-20 -18 c-16 -14 -23 -16 -32 -7 -9 9 -7 16 7 32 10 11 24 20 32 20 18 0 19
116 1 123 -10 3 -10 9 0 26 17 30 16 152 -3 177 -18 24 -19 34 -1 34 13 0 15
48 16 325 l0 325 -457 -2 c-379 -3 -457 -5 -461 -17 -3 -9 0 -11 9 -7 8 4 3
-1 -11 -12 -13 -11 -36 -23 -49 -25 -24 -5 -24 -4 7 21 33 28 40 42 21 42 -5
0 -7 -6 -3 -12 6 -10 5 -10 -7 -1 -12 10 -260 13 -1122 13 l-1107 0 0 -794z
m2661 448 c7 -9 14 -35 16 -58 1 -22 5 -61 9 -86 6 -38 5 -43 -7 -35 -32 24
-87 34 -163 29 -64 -3 -83 -1 -98 12 -17 16 -18 16 -18 -8 0 -13 7 -33 15 -44
8 -10 15 -26 15 -35 0 -8 19 -24 42 -35 53 -24 67 -28 50 -16 -19 13 9 24 29
11 12 -8 12 -11 -1 -19 -10 -7 8 -8 63 -4 l77 7 0 -26 c0 -32 -22 -130 -30
-137 -13 -10 -19 -40 -8 -40 7 0 7 -4 -1 -13 -6 -8 -8 -17 -4 -20 3 -4 -2 -9
-11 -13 -9 -3 -16 -15 -16 -25 0 -10 -6 -19 -14 -19 -7 0 -20 -17 -29 -37
l-15 -38 -1 36 c-1 30 -8 42 -38 65 -75 57 -78 61 -63 90 12 22 12 27 0 34
-15 10 -33 13 -60 11 -35 -2 -43 17 -52 124 -9 105 -8 107 17 136 14 17 25 34
25 39 0 9 55 33 80 35 9 1 41 17 71 37 99 64 101 65 120 42z m-1833 -76 c15
-13 17 -149 1 -165 -7 -7 -8 -17 -1 -29 5 -11 11 -56 13 -101 l4 -83 -27 0
c-27 0 -28 2 -28 53 0 87 -10 127 -31 127 -17 0 -19 -9 -19 -90 l0 -90 -30 0
-30 0 0 193 c0 107 2 196 4 198 8 8 131 -3 144 -13z m252 4 c18 -14 24 -32 28
-75 4 -56 4 -57 -22 -57 -23 0 -26 4 -26 38 0 41 -14 62 -42 62 -25 0 -29 -27
-26 -169 3 -104 6 -126 20 -135 27 -17 41 6 39 64 -1 50 -1 50 30 50 l31 0 -4
-60 c-5 -66 -23 -95 -65 -103 -34 -6 -81 10 -93 33 -6 10 -10 85 -10 167 0
125 3 151 18 169 30 38 86 45 122 16z m270 -8 c12 -11 16 -48 18 -174 3 -149
2 -160 -17 -179 -32 -32 -103 -29 -130 5 -19 24 -21 40 -21 163 0 147 8 176
50 199 29 15 78 8 100 -14z m251 10 c7 -9 13 -39 14 -68 0 -45 -2 -51 -22 -54
-20 -3 -23 1 -23 35 0 47 -12 68 -35 59 -28 -10 -13 -72 34 -145 43 -67 57
-115 47 -156 -15 -60 -80 -84 -127 -46 -20 16 -23 28 -24 77 0 54 2 59 23 62
20 3 22 -1 22 -36 0 -53 8 -72 31 -72 16 0 19 7 19 43 0 32 -10 57 -42 107
-53 83 -62 148 -28 185 28 30 90 34 111 9z m-1346 -124 c15 -71 28 -130 29
-130 1 0 0 59 -2 130 l-4 130 26 0 26 0 0 -195 0 -195 -29 0 c-28 0 -30 3 -46
78 -44 200 -45 201 -42 55 l4 -133 -29 0 -28 0 0 195 0 195 33 0 33 0 29 -130z
m280 108 c7 -31 55 -343 55 -357 0 -6 -11 -11 -24 -11 -19 0 -25 7 -30 35 -6
30 -11 35 -36 35 -25 0 -29 -4 -32 -32 -3 -28 -7 -34 -31 -36 -27 -3 -29 -1
-23 25 10 50 46 313 46 338 0 22 5 25 35 25 28 0 36 -4 40 -22z m1739 -202
c-3 -9 -10 -16 -15 -16 -5 0 -9 -19 -8 -42 1 -24 -6 -63 -15 -87 -9 -24 -13
-47 -10 -53 8 -12 -25 -48 -43 -48 -10 0 -12 6 -8 20 4 12 1 27 -5 35 -7 8 -9
15 -4 15 5 0 -2 6 -15 13 -13 6 -29 21 -35 32 -6 11 -18 25 -26 32 -8 7 -11
13 -6 13 5 0 -3 11 -18 25 -37 34 -33 45 19 45 25 0 45 4 45 9 0 5 16 11 35
13 19 2 35 0 35 -5 0 -5 6 -5 13 1 10 9 57 21 65 16 1 0 0 -9 -4 -18z m256
-382 c0 -10 -5 -12 -12 -8 -9 5 -9 2 1 -9 8 -11 9 -17 3 -17 -6 0 -9 -6 -6
-14 3 -8 -4 -24 -15 -35 -17 -17 -30 -19 -78 -16 -82 5 -112 14 -125 39 -7 11
-11 24 -10 29 1 4 -3 7 -10 7 -8 0 -7 5 3 15 8 8 46 19 83 23 37 5 71 13 74
19 13 20 37 20 65 1 15 -11 27 -26 27 -34z"/>
<path d="M1267 1133 c-4 -3 -7 -71 -7 -150 0 -124 2 -144 16 -150 33 -13 44
24 44 150 0 65 -5 127 -10 138 -11 19 -31 25 -43 12z"/>
<path d="M1945 86 c-27 -18 -61 -45 -74 -60 l-24 -26 116 0 116 0 -36 60 c-19
33 -38 60 -42 59 -3 0 -28 -15 -56 -33z"/>
</g>
</svg>
